
<svg version="1.0" xmlns="http://www.w3.org/2000/svg"
 width="40" height="50" viewBox="0 0 460.000000 450.000000"
 preserveAspectRatio="xMidYMid meet">

<g transform="translate(0.000000,450.000000) scale(0.100000,-0.100000)"
fill="#aeaeae" stroke="none">
<path d="M1715 4309 c-721 -41 -1252 -146 -1374 -271 l-31 -32 0 -212 c0 -201
1 -213 22 -239 20 -26 167 -105 195 -105 17 0 17 0 -7 -122 -26 -136 -74 -450
-94 -613 -97 -789 -39 -1403 155 -1638 l30 -37 108 0 108 0 7 -46 c3 -26 6
-154 6 -286 0 -181 3 -247 14 -272 37 -89 232 -171 546 -230 644 -120 1559
-94 2066 60 140 42 222 83 268 134 l34 38 6 193 c3 107 10 361 16 564 5 204
15 485 22 625 l11 255 48 127 c130 340 208 704 239 1108 6 80 12 145 13 146 1
1 29 15 62 32 33 17 74 44 90 62 l30 31 0 214 c0 210 0 214 -23 238 -119 127
-616 227 -1342 272 -254 16 -978 18 -1225 4z m582 -581 c13 -14 15 -24 7 -44
-19 -54 -68 -72 -226 -83 -5 -1 -17 -10 -27 -20 -16 -16 -19 -29 -14 -75 5
-45 2 -61 -15 -88 l-21 -33 46 -15 c61 -20 76 -44 44 -71 -48 -39 -265 -15
-295 33 -15 25 1 37 59 44 28 4 60 13 73 21 l23 14 -21 29 c-24 34 -25 49 -3
111 23 65 13 74 -96 89 -94 13 -190 45 -198 66 -14 38 6 40 331 40 285 -1 317
-3 333 -18z m1698 -180 c65 -44 71 -62 63 -200 -21 -362 -97 -738 -214 -1058
-44 -119 -177 -391 -240 -490 -121 -190 -256 -351 -415 -496 -164 -150 -390
-296 -561 -364 l-77 -30 -103 14 c-513 72 -1228 141 -1680 162 -157 7 -152 4
-211 114 -90 164 -127 363 -134 715 -7 328 18 630 87 1060 23 148 79 438 85
444 8 7 33 -20 38 -42 3 -12 22 -148 41 -302 l36 -280 -15 -140 c-35 -319 -30
-704 11 -905 32 -155 95 -288 147 -310 12 -6 184 -30 382 -55 636 -78 1101
-125 1254 -125 l84 0 101 60 c160 96 271 183 417 329 294 295 484 638 607
1101 49 180 92 490 92 652 0 62 4 79 26 112 45 66 112 79 179 34z m-1896 -564
l234 -7 -6 -271 c-10 -421 -40 -1360 -44 -1365 -6 -8 -377 30 -387 39 -11 11
-47 207 -82 445 -32 221 -36 436 -12 600 26 172 31 283 19 364 -14 87 -37 137
-85 179 -20 17 -36 33 -36 34 0 2 37 0 83 -3 45 -4 187 -11 316 -15z m-1335
-714 c22 -244 48 -634 44 -667 -3 -23 -7 -16 -26 40 -32 99 -42 172 -49 352
-5 141 4 477 13 450 2 -5 10 -84 18 -175z m1399 -1351 l107 -13 0 -236 c0
-279 -7 -334 -50 -372 -28 -26 -36 -28 -120 -28 -108 0 -139 12 -199 73 l-43
45 35 59 c60 97 72 156 72 336 l0 159 45 -6 c25 -3 93 -11 153 -17z"/>
</g>
</svg>
