
<svg version="1.0" xmlns="http://www.w3.org/2000/svg"
 width="40" height="40" viewBox="0 0 300.000000 300.000000"
 preserveAspectRatio="xMidYMid meet">

<g transform="translate(0.000000,300.000000) scale(0.100000,-0.100000)"
fill="#7f7f7f" stroke="none">
<path d="M488 2364 c-57 -30 -60 -82 -6 -110 21 -11 28 -20 23 -32 -35 -89
-48 -174 -49 -317 -1 -128 2 -162 22 -230 31 -106 89 -225 150 -305 l50 -66
41 -429 c23 -237 41 -433 41 -437 0 -5 357 -8 794 -8 l793 0 7 68 c40 440 158
1666 163 1694 5 32 10 38 46 50 52 17 84 57 68 87 -29 53 12 51 -1093 51 -883
-1 -1027 -3 -1050 -16z m137 -499 c14 -159 28 -308 31 -330 l5 -40 -20 25
c-28 35 -68 142 -87 231 -20 95 -14 297 12 383 14 46 19 55 25 40 4 -10 19
-149 34 -309z m1595 150 c16 -8 34 -24 40 -36 25 -46 -20 -250 -82 -376 -40
-80 -160 -243 -179 -243 -13 0 -11 39 16 318 15 148 31 265 39 280 34 67 102
90 166 57z m29 -560 c-11 -120 -24 -159 -60 -189 -35 -30 -102 -36 -134 -12
-18 13 -16 17 38 75 31 34 80 97 108 141 29 44 53 79 54 78 1 -2 -2 -43 -6
-93z m-154 -359 c53 -23 77 -69 72 -140 -3 -53 -7 -62 -40 -92 -79 -72 -181
-28 -202 86 -8 49 28 119 75 142 42 22 51 22 95 4z"/>
</g>
</svg>
